<?xml version="1.0" encoding="UTF-8" standalone="no"?>
<!-- Created with Inkscape (http://www.inkscape.org/) -->

<svg
   width="260.03641mm"
   height="12.179513mm"
   viewBox="0 0 260.03641 12.179513"
   version="1.1"
   id="svg802"
   inkscape:version="1.2.2 (732a01da63, 2022-12-09)"
   sodipodi:docname="Foot_logo_fundo_branco.svg"
   xml:space="preserve"
   xmlns:inkscape="http://www.inkscape.org/namespaces/inkscape"
   xmlns:sodipodi="http://sodipodi.sourceforge.net/DTD/sodipodi-0.dtd"
   xmlns="http://www.w3.org/2000/svg"
   xmlns:svg="http://www.w3.org/2000/svg"><sodipodi:namedview
     id="namedview804"
     pagecolor="#505050"
     bordercolor="#eeeeee"
     borderopacity="1"
     inkscape:showpageshadow="0"
     inkscape:pageopacity="0"
     inkscape:pagecheckerboard="0"
     inkscape:deskcolor="#505050"
     inkscape:document-units="mm"
     showgrid="false"
     inkscape:zoom="2.0888418"
     inkscape:cx="246.54811"
     inkscape:cy="-51.703292"
     inkscape:window-width="1920"
     inkscape:window-height="1009"
     inkscape:window-x="-8"
     inkscape:window-y="-8"
     inkscape:window-maximized="1"
     inkscape:current-layer="layer1" /><defs
     id="defs799" /><g
     inkscape:label="Camada 1"
     inkscape:groupmode="layer"
     id="layer1"
     transform="translate(-5.021265,-79.048885)"><g
       id="g5390"
       transform="translate(3.6507812,0.52916663)"><rect
         style="fill:#3775a8;fill-opacity:1;stroke-width:0.167372"
         id="rect3995"
         width="245.73027"
         height="0.37999526"
         x="15.667725"
         y="88.607185" /><rect
         style="fill:#f8d94a;fill-opacity:1;stroke-width:0.167372"
         id="rect3995-1"
         width="245.73027"
         height="0.37999526"
         x="15.676611"
         y="88.972687" /></g><text
       xml:space="preserve"
       style="font-size:11.1079px;fill:#646464;fill-opacity:1;stroke-width:0.925655"
       x="18.702831"
       y="88.037636"
       id="text113"><tspan
         sodipodi:role="line"
         id="tspan111"
         style="font-style:normal;font-variant:normal;font-weight:normal;font-stretch:normal;font-family:'Microsoft Yi Baiti';-inkscape-font-specification:'Microsoft Yi Baiti';fill:#646464;fill-opacity:1;stroke-width:0.925655"
         x="18.702831"
         y="88.037636">intrasom</tspan></text><path
       style="fill:#3775a8;fill-opacity:1;stroke:none;stroke-width:0.0343471;stroke-opacity:1"
       d="m 13.627201,79.63568 c 0.693657,0.936899 1.663754,2.211181 2.281284,3.221821 1.336114,2.186666 1.895106,4.129385 1.253192,5.842114 -0.743924,1.984916 -2.605378,2.82319 -4.383992,2.437209 -1.020762,-0.221516 -1.94305,-0.938923 -2.652858,-2.161478 1.185503,-1.635499 2.231469,-3.01387 2.478045,-4.555327 0.14482,-0.905339 0.202176,-2.123615 -0.274673,-3.123589 z"
       id="path359"
       sodipodi:nodetypes="cssscscc" /><path
       style="fill:#f8d94a;fill-opacity:1;stroke:none;stroke-width:0.0343471;stroke-opacity:1"
       d="m 8.8218024,90.641607 c -0.693657,-0.936898 -1.663754,-2.211181 -2.281283,-3.22182 -1.336114,-2.186671 -1.895106,-4.129388 -1.253192,-5.842119 0.743924,-1.984914 2.605377,-2.823188 4.383992,-2.437208 1.0207606,0.221517 1.9430496,0.938924 2.6528576,2.161479 -1.185503,1.6355 -2.23147,3.01387 -2.4780446,4.555327 -0.14482,0.905342 -0.202176,2.123618 0.2746726,3.123593 z"
       id="path3118"
       sodipodi:nodetypes="cssscscc" /><path
       sodipodi:type="star"
       style="fill:#ffffff;fill-opacity:1;stroke:none;stroke-width:0.264583;stroke-opacity:1"
       id="path8620"
       inkscape:flatsided="true"
       sodipodi:sides="6"
       sodipodi:cx="143.30519"
       sodipodi:cy="23.287092"
       sodipodi:r1="15.997955"
       sodipodi:r2="13.854636"
       sodipodi:arg1="0.52359878"
       sodipodi:arg2="1.0471976"
       inkscape:rounded="0"
       inkscape:randomized="0"
       d="m 157.15983,31.28607 -13.85464,7.998978 -13.85463,-7.998978 0,-15.997956 13.85463,-7.9989771 13.85464,7.9989781 z"
       transform="matrix(0.04507173,0,0,0.04594174,6.8939314,88.645461)" /><path
       sodipodi:type="star"
       style="fill:#ffffff;fill-opacity:1;stroke:none;stroke-width:0.264583;stroke-opacity:1"
       id="path9271"
       inkscape:flatsided="true"
       sodipodi:sides="6"
       sodipodi:cx="143.30519"
       sodipodi:cy="23.287092"
       sodipodi:r1="15.997955"
       sodipodi:r2="13.854636"
       sodipodi:arg1="0.52359878"
       sodipodi:arg2="1.0471976"
       inkscape:rounded="0"
       inkscape:randomized="0"
       d="m 157.15983,31.28607 -13.85464,7.998978 -13.85463,-7.998978 0,-15.997956 13.85463,-7.9989771 13.85464,7.9989781 z"
       transform="matrix(0.04507173,0,0,0.04594174,7.5604684,87.398428)" /><path
       sodipodi:type="star"
       style="fill:#ffffff;fill-opacity:1;stroke:none;stroke-width:0.264583;stroke-opacity:1"
       id="path9273"
       inkscape:flatsided="true"
       sodipodi:sides="6"
       sodipodi:cx="143.30519"
       sodipodi:cy="23.287092"
       sodipodi:r1="15.997955"
       sodipodi:r2="13.854636"
       sodipodi:arg1="0.52359878"
       sodipodi:arg2="1.0471976"
       inkscape:rounded="0"
       inkscape:randomized="0"
       d="m 157.15983,31.28607 -13.85464,7.998978 -13.85463,-7.998978 0,-15.997956 13.85463,-7.9989771 13.85464,7.9989781 z"
       transform="matrix(0.04507173,0,0,0.04594174,8.2688854,88.644756)"
       inkscape:transform-center-y="-1.270835e-06" /><path
       sodipodi:type="star"
       style="fill:#ffffff;fill-opacity:1;stroke:none;stroke-width:0.264583;stroke-opacity:1"
       id="path9275"
       inkscape:flatsided="true"
       sodipodi:sides="6"
       sodipodi:cx="143.30519"
       sodipodi:cy="23.287092"
       sodipodi:r1="15.997955"
       sodipodi:r2="13.854636"
       sodipodi:arg1="0.52359878"
       sodipodi:arg2="1.0471976"
       inkscape:rounded="0"
       inkscape:randomized="0"
       d="m 157.15983,31.28607 -13.85464,7.998978 -13.85463,-7.998978 0,-15.997956 13.85463,-7.9989771 13.85464,7.9989781 z"
       transform="matrix(0.04507173,0,0,0.04594174,8.9611674,87.393976)"
       inkscape:transform-center-y="-1.7433621e-06" /><path
       sodipodi:type="star"
       style="fill:#ffffff;fill-opacity:1;stroke:none;stroke-width:0.264583;stroke-opacity:1"
       id="path9277"
       inkscape:flatsided="true"
       sodipodi:sides="6"
       sodipodi:cx="143.30519"
       sodipodi:cy="23.287092"
       sodipodi:r1="15.997955"
       sodipodi:r2="13.854636"
       sodipodi:arg1="0.52359878"
       sodipodi:arg2="1.0471976"
       inkscape:rounded="0"
       inkscape:randomized="0"
       d="m 157.15983,31.28607 -13.85464,7.998978 -13.85463,-7.998978 0,-15.997956 13.85463,-7.9989771 13.85464,7.9989781 z"
       transform="matrix(0.04507173,0,0,0.04594174,9.6571874,86.143701)" /></g></svg>
