<?xml version="1.0" encoding="UTF-8" standalone="no"?>
<!-- Created with Inkscape (http://www.inkscape.org/) -->

<svg
   width="264.11737mm"
   height="71.712105mm"
   viewBox="0 0 264.11737 71.712105"
   version="1.1"
   id="svg5"
   inkscape:version="1.2.2 (732a01da63, 2022-12-09)"
   sodipodi:docname="Logo_fundo_branco.svg"
   xml:space="preserve"
   xmlns:inkscape="http://www.inkscape.org/namespaces/inkscape"
   xmlns:sodipodi="http://sodipodi.sourceforge.net/DTD/sodipodi-0.dtd"
   xmlns="http://www.w3.org/2000/svg"
   xmlns:svg="http://www.w3.org/2000/svg"><sodipodi:namedview
     id="namedview7"
     pagecolor="#505050"
     bordercolor="#eeeeee"
     borderopacity="1"
     inkscape:showpageshadow="0"
     inkscape:pageopacity="0"
     inkscape:pagecheckerboard="0"
     inkscape:deskcolor="#505050"
     inkscape:document-units="mm"
     showgrid="false"
     inkscape:zoom="1.0444209"
     inkscape:cx="613.73722"
     inkscape:cy="186.70633"
     inkscape:window-width="2560"
     inkscape:window-height="1009"
     inkscape:window-x="-8"
     inkscape:window-y="-8"
     inkscape:window-maximized="1"
     inkscape:current-layer="layer1" /><defs
     id="defs2"><clipPath
       clipPathUnits="userSpaceOnUse"
       id="clipEmfPath1"><path
         d="M 0,0 H 426.66713 V 239.77987 H 0 Z"
         id="path3120" /></clipPath><pattern
       id="EMFhbasepattern"
       patternUnits="userSpaceOnUse"
       width="6"
       height="6"
       x="0"
       y="0" /></defs><g
     inkscape:label="Camada 1"
     inkscape:groupmode="layer"
     id="layer1"
     transform="translate(-8.074847,-69.497925)"><text
       xml:space="preserve"
       style="font-size:65.4025px;fill:#646464;fill-opacity:1;stroke-width:5.45019"
       x="88.63092"
       y="122.42303"
       id="text113"><tspan
         sodipodi:role="line"
         id="tspan111"
         style="font-style:normal;font-variant:normal;font-weight:normal;font-stretch:normal;font-family:'Microsoft Yi Baiti';-inkscape-font-specification:'Microsoft Yi Baiti';fill:#646464;fill-opacity:1;stroke-width:5.45019"
         x="88.63092"
         y="122.42303">intrasom</tspan></text><path
       style="fill:#3775a8;fill-opacity:1;stroke:none;stroke-width:0.202233;stroke-opacity:1"
       d="m 58.745986,72.952927 c 4.084203,5.516394 9.796064,13.019276 13.432035,18.969851 7.866944,12.874932 11.158247,24.313522 7.378702,34.397952 -4.38017,11.68704 -15.340275,16.62274 -25.812631,14.35011 -6.01017,-1.30427 -11.44054,-5.52831 -15.619838,-12.72663 6.980157,-9.6297 13.138733,-17.74545 14.590552,-26.82144 0.852691,-5.33057 1.190397,-12.503692 -1.617256,-18.391464 z"
       id="path359"
       sodipodi:nodetypes="cssscscc" /><path
       style="fill:#f8d94a;fill-opacity:1;stroke:none;stroke-width:0.202233;stroke-opacity:1"
       d="M 30.452139,137.75504 C 26.367936,132.23865 20.656074,124.73576 17.020107,118.78519 9.1531624,105.91023 5.8618612,94.47165 9.6414023,84.387216 14.021573,72.700181 24.981676,67.764486 35.454032,70.037109 c 6.01017,1.304276 11.44054,5.528314 15.619838,12.726634 -6.980156,9.629704 -13.138732,17.745447 -14.590552,26.821437 -0.85269,5.33059 -1.190397,12.50371 1.617257,18.39149 z"
       id="path3118"
       sodipodi:nodetypes="cssscscc" /><path
       sodipodi:type="star"
       style="fill:#ffffff;fill-opacity:1;stroke:none;stroke-width:0.264583;stroke-opacity:1"
       id="path8620"
       inkscape:flatsided="true"
       sodipodi:sides="6"
       sodipodi:cx="143.30519"
       sodipodi:cy="23.287092"
       sodipodi:r1="15.997955"
       sodipodi:r2="13.854636"
       sodipodi:arg1="0.52359878"
       sodipodi:arg2="1.0471976"
       inkscape:rounded="0"
       inkscape:randomized="0"
       d="m 157.15983,31.28607 -13.85464,7.998978 -13.85463,-7.998978 0,-15.997956 13.85463,-7.9989771 13.85464,7.9989781 z"
       transform="matrix(0.2653791,0,0,0.27050167,19.100969,126.00187)"
       inkscape:transform-center-y="-5.8645892e-06" /><path
       sodipodi:type="star"
       style="fill:#ffffff;fill-opacity:1;stroke:none;stroke-width:0.264583;stroke-opacity:1"
       id="path9271"
       inkscape:flatsided="true"
       sodipodi:sides="6"
       sodipodi:cx="143.30519"
       sodipodi:cy="23.287092"
       sodipodi:r1="15.997955"
       sodipodi:r2="13.854636"
       sodipodi:arg1="0.52359878"
       sodipodi:arg2="1.0471976"
       inkscape:rounded="0"
       inkscape:randomized="0"
       d="m 157.15983,31.28607 -13.85464,7.998978 -13.85463,-7.998978 0,-15.997956 13.85463,-7.9989771 13.85464,7.9989781 z"
       transform="matrix(0.2653791,0,0,0.27050167,23.025493,118.65943)"
       inkscape:transform-center-y="1.1518675e-06" /><path
       sodipodi:type="star"
       style="fill:#ffffff;fill-opacity:1;stroke:none;stroke-width:0.264583;stroke-opacity:1"
       id="path9273"
       inkscape:flatsided="true"
       sodipodi:sides="6"
       sodipodi:cx="143.30519"
       sodipodi:cy="23.287092"
       sodipodi:r1="15.997955"
       sodipodi:r2="13.854636"
       sodipodi:arg1="0.52359878"
       sodipodi:arg2="1.0471976"
       inkscape:rounded="0"
       inkscape:randomized="0"
       d="m 157.15983,31.28607 -13.85464,7.998978 -13.85463,-7.998978 0,-15.997956 13.85463,-7.9989771 13.85464,7.9989781 z"
       transform="matrix(0.2653791,0,0,0.27050167,27.196603,125.99772)"
       inkscape:transform-center-y="-8.9394251e-06" /><path
       sodipodi:type="star"
       style="fill:#ffffff;fill-opacity:1;stroke:none;stroke-width:0.264583;stroke-opacity:1"
       id="path9275"
       inkscape:flatsided="true"
       sodipodi:sides="6"
       sodipodi:cx="143.30519"
       sodipodi:cy="23.287092"
       sodipodi:r1="15.997955"
       sodipodi:r2="13.854636"
       sodipodi:arg1="0.52359878"
       sodipodi:arg2="1.0471976"
       inkscape:rounded="0"
       inkscape:randomized="0"
       d="m 157.15983,31.28607 -13.85464,7.998978 -13.85463,-7.998978 0,-15.997956 13.85463,-7.9989771 13.85464,7.9989781 z"
       transform="matrix(0.2653791,0,0,0.27050167,31.272711,118.63322)"
       inkscape:transform-center-y="-8.5679979e-06" /><path
       sodipodi:type="star"
       style="fill:#ffffff;fill-opacity:1;stroke:none;stroke-width:0.264583;stroke-opacity:1"
       id="path9277"
       inkscape:flatsided="true"
       sodipodi:sides="6"
       sodipodi:cx="143.30519"
       sodipodi:cy="23.287092"
       sodipodi:r1="15.997955"
       sodipodi:r2="13.854636"
       sodipodi:arg1="0.52359878"
       sodipodi:arg2="1.0471976"
       inkscape:rounded="0"
       inkscape:randomized="0"
       d="m 157.15983,31.28607 -13.85464,7.998978 -13.85463,-7.998978 0,-15.997956 13.85463,-7.9989771 13.85464,7.9989781 z"
       transform="matrix(0.2653791,0,0,0.27050167,35.370823,111.27169)"
       inkscape:transform-center-y="-2.998976e-06" /></g></svg>
